<?xml version="1.0" encoding="utf-8"?>
<!-- Generator: Adobe Illustrator 27.0.1, SVG Export Plug-In . SVG Version: 6.00 Build 0)  -->
<svg version="1.1" id="Layer_1" xmlns="http://www.w3.org/2000/svg" xmlns:xlink="http://www.w3.org/1999/xlink" x="0px" y="0px"
	 viewBox="0 0 512 512" style="enable-background:new 0 0 512 512;" xml:space="preserve">
<style type="text/css">
	.st0{clip-path:url(#SVGID_00000032635681123904587160000000611458425213706121_);fill:#41479B;}
	.st1{clip-path:url(#SVGID_00000032635681123904587160000000611458425213706121_);fill:#FF4B55;}
	.st2{clip-path:url(#SVGID_00000032635681123904587160000000611458425213706121_);fill:#F5F5F5;}
</style>
<g>
	<defs>
		<circle id="SVGID_1_" cx="255.3" cy="256" r="256"/>
	</defs>
	<clipPath id="SVGID_00000158000962310267825160000014567075214355325357_">
		<use xlink:href="#SVGID_1_"  style="overflow:visible;"/>
	</clipPath>
	<path style="clip-path:url(#SVGID_00000158000962310267825160000014567075214355325357_);fill:#41479B;" d="M629.4,514h-760.5
		c-7.5,0-13.6-6.1-13.6-13.6V11.6c0-7.5,6.1-13.6,13.6-13.6h760.5c7.5,0,13.6,6.1,13.6,13.6v488.9C643,508,636.9,514,629.4,514z"/>
	
		<rect x="-144.7" y="120.2" style="clip-path:url(#SVGID_00000158000962310267825160000014567075214355325357_);fill:#FF4B55;" width="787.7" height="271.6"/>
	<polygon style="clip-path:url(#SVGID_00000158000962310267825160000014567075214355325357_);fill:#F5F5F5;" points="428.9,359 
		428.9,339.7 422.5,339.7 422.5,326.9 416,326.9 416,314.1 409.6,314.1 409.6,301.2 390.4,301.2 390.4,262.7 390.4,262.7 
		396.8,256.3 396.8,237 390.4,237 390.4,224.2 383.9,224.2 383.9,204.9 377.5,204.9 377.5,192.1 371.1,192.1 371.1,179.3 
		364.7,179.3 364.7,172.8 351.9,172.8 351.9,179.3 345.4,179.3 345.4,192.1 339,192.1 339,204.9 332.6,204.9 332.6,224.2 
		326.2,224.2 326.2,237 287.7,237 287.7,217.8 281.2,217.8 281.2,198.5 274.8,198.5 274.8,179.3 268.4,179.3 268.4,166.4 262,166.4 
		262,153.6 255.6,153.6 255.6,147.2 252.4,147.2 252.4,140.8 245.9,140.8 245.9,147.2 242.7,147.2 242.7,153.6 236.3,153.6 
		236.3,166.4 229.9,166.4 229.9,179.3 223.5,179.3 223.5,198.5 217.1,198.5 217.1,217.8 210.6,217.8 210.6,237 172.1,237 
		172.1,224.2 165.7,224.2 165.7,204.9 159.3,204.9 159.3,192.1 152.9,192.1 152.9,179.3 146.5,179.3 146.5,172.8 133.6,172.8 
		133.6,179.3 127.2,179.3 127.2,192.1 120.8,192.1 120.8,204.9 114.4,204.9 114.4,224.2 108,224.2 108,237 101.5,237 101.5,256.3 
		107.9,262.7 108,262.7 108,301.2 88.7,301.2 88.7,314.1 82.3,314.1 82.3,326.9 75.9,326.9 75.9,339.7 69.4,339.7 69.4,359 63,359 
		63,378.2 435.3,378.2 435.3,359 	"/>
</g>
</svg>
