<?xml version="1.0" encoding="utf-8"?>
<!-- Generator: Adobe Illustrator 27.0.1, SVG Export Plug-In . SVG Version: 6.00 Build 0)  -->
<svg version="1.1" id="Layer_1" xmlns="http://www.w3.org/2000/svg" xmlns:xlink="http://www.w3.org/1999/xlink" x="0px" y="0px"
	 viewBox="0 0 512 512" style="enable-background:new 0 0 512 512;" xml:space="preserve">
<style type="text/css">
	.st0{clip-path:url(#SVGID_00000158740530937778806840000005554955889982368167_);}
	.st1{fill:#41479B;}
	.st2{fill:#F5F5F5;}
	.st3{fill:#FF4B55;}
</style>
<g>
	<defs>
		<circle id="SVGID_1_" cx="256.3" cy="256" r="256"/>
	</defs>
	<clipPath id="SVGID_00000144298657505284554610000005550791258448798602_">
		<use xlink:href="#SVGID_1_"  style="overflow:visible;"/>
	</clipPath>
	<g style="clip-path:url(#SVGID_00000144298657505284554610000005550791258448798602_);">
		<path class="st1" d="M588.2,0H-76.2c-32.3,0-58.5,26.2-58.5,58.5v394.9c0,32.3,26.2,58.5,58.5,58.5h664.4
			c32.3,0,58.5-26.2,58.5-58.5V58.5C646.7,26.2,620.5,0,588.2,0z"/>
		<path class="st2" d="M645.9,48.9C641.3,21.1,617.2,0,588.2,0H573L323.4,163.5V0H188.6v163.5L-61,0h-15.2
			c-29,0-53.1,21.1-57.7,48.9L79.4,188.6h-214.2v134.7H79.4l-213.3,139.8c4.6,27.7,28.7,48.9,57.7,48.9H-61l249.6-163.5V512h134.7
			V348.5L573,512h15.2c29,0,53.1-21.1,57.7-48.9L432.6,323.4h214.2V188.6H432.6L645.9,48.9z"/>
		<g>
			<polygon class="st3" points="296.4,0 215.6,0 215.6,215.6 -134.7,215.6 -134.7,296.4 215.6,296.4 215.6,512 296.4,512 
				296.4,296.4 646.7,296.4 646.7,215.6 296.4,215.6 			"/>
			<path class="st3" d="M-96.9,508.2l284.8-184.9h-49.5l-259.1,168.2C-114.3,498.9-106.2,504.7-96.9,508.2z"/>
			<path class="st3" d="M394,323.4h-49.5l275.8,179c7.7-5.1,14.2-11.9,18.8-20L394,323.4z"/>
			<path class="st3" d="M-128.6,32.4l240.7,156.3h49.5L-111.1,11.5C-118.4,17-124.4,24.1-128.6,32.4z"/>
			<path class="st3" d="M372.9,188.6L632.4,20.2c-6.4-7.4-14.6-13.1-24-16.6l-285.1,185H372.9z"/>
		</g>
	</g>
</g>
</svg>
